<svg width="790" height="790" viewBox="0 0 790 790" fill="none" xmlns="http://www.w3.org/2000/svg">
<path d="M681.354 451.674C680.29 440.493 679.312 429.331 678.334 418.197C671.243 337.423 663.909 253.899 623.624 179.615C567.201 75.5628 464.5 15.7762 339.164 12.8761C336.897 12.824 336.578 9.13291 338.802 8.63627C416.897 -8.88094 493.369 0.291528 555.043 35.7735C668.112 100.818 699.866 216.703 724.811 339.808C726.024 345.813 727.232 351.936 728.456 358.141C740.124 417.332 753.214 483.756 790 530.017C767.832 536.145 722.181 540.373 684.945 489.513L681.354 451.674Z" fill="#8B5CF6"/>
<path d="M1.02353 384.663L32.2573 424.238C43.4025 438.352 62.2911 441.081 76.2044 430.584L140.679 381.932C143.246 379.991 146.502 379.651 149.346 381.03C151.047 381.852 312.044 458.331 371.893 360.576C376.413 353.194 377.949 343.93 376.286 335.15C371.56 310.189 364.399 292.825 364.152 292.23C364.152 292.23 364.149 292.227 364.149 292.221C382.583 312.62 394.855 339.38 397.775 368.372C399.971 390.209 397.926 416.736 385.573 445.633C365.853 491.768 324.98 523.023 264.092 538.526C125.834 573.729 83.7555 598.401 78.642 694.875C203.179 660.582 299.976 666.358 366.481 712.092C407.287 740.161 422.92 769.941 430.225 789.671C513.907 704.225 575.161 590.612 579.893 453.11C584.573 317.096 559.011 221.809 485.081 137.132C463.912 112.886 436.492 92.0027 408.736 75.1017C420.891 77.3365 438.743 85.8622 458.203 98.9556C502.884 129.014 538.459 173.856 561.191 226.766C590.602 295.223 601.755 379.51 598.175 453.113C594.803 522.407 583.966 590.265 557.83 651.465C630.687 736.504 710.399 697.355 737.66 679.709C684.756 620.569 669.808 523.382 663.186 453.892C662.113 442.656 661.13 431.436 660.147 420.25C652.942 338.185 646.136 260.676 608.047 190.441C561.075 103.821 479.507 49.7517 378.897 36.5908C378.897 36.5908 350.131 33.1143 312.632 34.5521C286.358 27.4337 258.314 22.406 228.411 19.6469C221.729 19.0307 217.181 27.2068 220.602 33.7336L269.403 126.838C262.169 126.133 255.43 122.38 250.52 116.326L246.646 111.549C244.125 108.438 239.848 108.245 237.113 111.114L0.6606 359.298C-0.669244 360.693 0.135163 363.201 1.94711 363.305C16.5266 364.163 41.6853 362.744 59.9673 346.189C57.6245 353.936 53.3912 360.843 47.5843 365.727C36.4716 375.071 21.1418 380.114 8.54216 380.114C6.57312 380.114 4.69888 380.065 2.94381 379.982C0.758104 379.881 -0.436317 382.818 1.02353 384.663ZM217.414 215.393L284.768 162.979C287.308 161.002 290.843 162.485 291.539 165.885C293.643 176.183 294.491 196.045 274.7 209.019C255.124 221.855 231.233 222.367 218.896 221.561C216.06 221.38 215.074 217.214 217.414 215.393Z" fill="#8B5CF6"/>
</svg>
